<svg xmlns="http://www.w3.org/2000/svg" width="26.984" height="17.172" viewBox="0 0 26.984 17.172">
  <path id="Icon_material-people" data-name="Icon material-people" d="M19.9,14.859a3.68,3.68,0,1,0-3.68-3.68A3.664,3.664,0,0,0,19.9,14.859Zm-9.812,0a3.68,3.68,0,1,0-3.68-3.68A3.664,3.664,0,0,0,10.086,14.859Zm0,2.453c-2.858,0-8.586,1.435-8.586,4.293v3.066H18.672V21.605C18.672,18.747,12.944,17.312,10.086,17.312Zm9.812,0c-.356,0-.76.025-1.19.061a5.176,5.176,0,0,1,2.416,4.232v3.066h7.359V21.605C28.484,18.747,22.756,17.312,19.9,17.312Z" transform="translate(-1.5 -7.5)" fill="#707070"/>
</svg>
