<svg xmlns="http://www.w3.org/2000/svg" width="33.272" height="32.717" viewBox="0 0 33.272 32.717">
  <g id="Group_32" data-name="Group 32" transform="translate(-20 -313)">
    <g id="Group_5" data-name="Group 5" transform="translate(144.706 17.617) rotate(9)">
      <g id="Rectangle_30" data-name="Rectangle 30" transform="translate(-67 313)" fill="#fff" stroke="#000" stroke-width="2">
        <rect width="24" height="26" rx="3" stroke="none"/>
        <rect x="1" y="1" width="22" height="24" rx="2" fill="none"/>
      </g>
      <g id="Rectangle_31" data-name="Rectangle 31" transform="translate(-62 313)" fill="#fff" stroke="#000" stroke-width="2">
        <rect width="19" height="26" rx="3" stroke="none"/>
        <rect x="1" y="1" width="17" height="24" rx="2" fill="none"/>
      </g>
      <line id="Line_13" data-name="Line 13" x2="10" transform="translate(-57.5 319.5)" fill="none" stroke="#000" stroke-width="2"/>
      <line id="Line_12" data-name="Line 12" x2="10" transform="translate(-57.5 324.5)" fill="none" stroke="#000" stroke-width="2"/>
    </g>
    <g id="Group_4" data-name="Group 4" transform="translate(87)">
      <g id="Rectangle_30-2" data-name="Rectangle 30" transform="translate(-67 313)" fill="#fff" stroke="#000" stroke-width="2">
        <rect width="24" height="26" rx="3" stroke="none"/>
        <rect x="1" y="1" width="22" height="24" rx="2" fill="none"/>
      </g>
      <g id="Rectangle_31-2" data-name="Rectangle 31" transform="translate(-62 313)" fill="#fff" stroke="#000" stroke-width="2">
        <rect width="19" height="26" rx="3" stroke="none"/>
        <rect x="1" y="1" width="17" height="24" rx="2" fill="none"/>
      </g>
      <line id="Line_13-2" data-name="Line 13" x2="10" transform="translate(-57.5 319.5)" fill="none" stroke="#000" stroke-width="2"/>
      <line id="Line_12-2" data-name="Line 12" x2="10" transform="translate(-57.5 324.5)" fill="none" stroke="#000" stroke-width="2"/>
    </g>
  </g>
</svg>
