<svg id="Icon_feather-settings" data-name="Icon feather-settings" xmlns="http://www.w3.org/2000/svg" width="26.893" height="26.893" viewBox="0 0 26.893 26.893">
  <path id="Path_19" data-name="Path 19" d="M20.016,16.758A3.258,3.258,0,1,1,16.758,13.5,3.258,3.258,0,0,1,20.016,16.758Z" transform="translate(-3.312 -3.312)" fill="none" stroke="#000" stroke-linecap="round" stroke-linejoin="round" stroke-width="3"/>
  <path id="Path_20" data-name="Path 20" d="M21.483,16.7a1.792,1.792,0,0,0,.358,1.977l.065.065a2.173,2.173,0,1,1-3.073,3.074l-.065-.065a1.807,1.807,0,0,0-3.063,1.282v.185a2.172,2.172,0,1,1-4.344,0v-.1a1.792,1.792,0,0,0-1.173-1.64,1.792,1.792,0,0,0-1.977.358l-.065.065a2.173,2.173,0,1,1-3.074-3.073l.065-.065a1.807,1.807,0,0,0-1.282-3.063H3.672a2.172,2.172,0,1,1,0-4.344h.1a1.792,1.792,0,0,0,1.64-1.173,1.792,1.792,0,0,0-.358-1.977l-.065-.065A2.173,2.173,0,1,1,8.06,5.073l.065.065A1.792,1.792,0,0,0,10.1,5.5h.087a1.792,1.792,0,0,0,1.086-1.64V3.672a2.172,2.172,0,0,1,4.344,0v.1a1.807,1.807,0,0,0,3.063,1.282l.065-.065A2.173,2.173,0,1,1,21.82,8.06l-.065.065A1.792,1.792,0,0,0,21.4,10.1v.087a1.792,1.792,0,0,0,1.64,1.086h.185a2.172,2.172,0,1,1,0,4.344h-.1a1.792,1.792,0,0,0-1.64,1.086Z" fill="none" stroke="#000" stroke-linecap="round" stroke-linejoin="round" stroke-width="3"/>
</svg>
