<svg xmlns="http://www.w3.org/2000/svg" width="23.938" height="21.729" viewBox="0 0 23.938 21.729">
  <g id="Icon_ionic-ios-menu" data-name="Icon ionic-ios-menu" transform="translate(-4.5 -10.125)">
    <path id="Path_5" data-name="Path 5" d="M27.441,13.229H5.5c-.549,0-1-.7-1-1.552h0c0-.854.449-1.552,1-1.552H27.441c.549,0,1,.7,1,1.552h0C28.438,12.531,27.989,13.229,27.441,13.229Z" transform="translate(0)"/>
    <path id="Path_6" data-name="Path 6" d="M27.441,19.979H5.5c-.549,0-1-.7-1-1.552h0c0-.854.449-1.552,1-1.552H27.441c.549,0,1,.7,1,1.552h0C28.438,19.281,27.989,19.979,27.441,19.979Z" transform="translate(0 2.562)"/>
    <path id="Path_7" data-name="Path 7" d="M27.441,26.729H5.5c-.549,0-1-.7-1-1.552h0c0-.854.449-1.552,1-1.552H27.441c.549,0,1,.7,1,1.552h0C28.438,26.031,27.989,26.729,27.441,26.729Z" transform="translate(0 5.125)"/>
  </g>
</svg>
